mtllib materials.mtl
v 0.002419837 0.3823562 -0.01866353
v 0.02289117 0.3296647 -0.1941943
v 0.03617187 0.381548 -0.2243646
v 0.01228862 0.4430214 -0.0195787
v 0.07743061 0.4227842 -0.24375
v 0.05104969 0.4906865 -0.01754773
v 0.1356121 0.4423243 -0.247156
v 0.108317 0.5125796 -0.01311493
v 1.097076 0.450905 -0.2562038
v 1.070695 0.5188073 -0.0300017
v 1.141976 0.4185616 -0.2294396
v 1.118093 0.4800351 -0.02465367
v 1.160232 0.3699334 -0.1965685
v 1.139761 0.4226249 -0.02103764
v 1.146952 0.31805 -0.1663982
v 1.129892 0.3619596 -0.02012247
v 1.105693 0.2768137 -0.1470128
v 1.091131 0.3142945 -0.02215344
v 0.1455626 0.2413009 -0.1210731
v 0.131915 0.2764287 -0.004052579
v 0.08604795 0.248693 -0.1345589
v 0.07148617 0.2861738 -0.009699523
v 0.04114706 0.2810364 -0.1613232
v 0.02408762 0.324946 -0.01504749
v 0.04736186 0.1961771 -0.3190494
v 0.06472098 0.2258126 -0.3700289
v 0.1089653 0.2507622 -0.4046476
v 0.1682397 0.2643409 -0.4136295
v 1.12861 0.278883 -0.4171014
v 1.170526 0.2628262 -0.3751038
v 1.184703 0.2364458 -0.3214235
v 1.167344 0.2068104 -0.270444
v 1.123099 0.1818608 -0.2358254
v 1.063825 0.168282 -0.2268435
v 0.1034545 0.15374 -0.2233715
v 0.0615393 0.1697968 -0.2653692
v 0.06927494 0.01766145 -0.359774
v 0.09028626 0.01754427 -0.4175409
v 0.1372042 0.02071345 -0.4571283
v 0.1974571 0.02631998 -0.4679289
v 1.156849 0.0488342 -0.4695821
v 1.196091 0.05455792 -0.4226159
v 1.206616 0.05793011 -0.362148
v 1.185605 0.05804729 -0.3043811
v 1.138687 0.05487812 -0.2647938
v 1.078434 0.04927158 -0.2539932
v 0.1190419 0.02675736 -0.2523398
v 0.0798002 0.02103364 -0.2993063
v 0.08275885 -0.1580492 -0.3054559
v 0.1060175 -0.1874516 -0.3541697
v 0.1545806 -0.2057205 -0.3871299
v 0.2154357 -0.207961 -0.3955047
v 1.174226 -0.1775999 -0.3995838
v 1.211822 -0.150438 -0.3592446
v 1.2201 -0.1177806 -0.3078299
v 1.196841 -0.08837831 -0.2591161
v 1.148278 -0.07010937 -0.226156
v 0.1854744 -0.08384168 -0.1952474
v 0.1286333 -0.09823 -0.2137021
v 0.0910368 -0.125392 -0.2540412
v 0.0842006 -0.2838734 -0.1706496
v 0.1076995 -0.3342465 -0.1968958
v 0.1564385 -0.367867 -0.2134085
v 0.217358 -0.3757266 -0.2157631
v 1.176084 -0.3397463 -0.2258624
v 1.213504 -0.2972328 -0.2019708
v 1.221542 -0.2436048 -0.1730238
v 1.198043 -0.1932317 -0.1467776
v 1.149304 -0.1596111 -0.1302649
v 0.1864355 -0.1677244 -0.1053767
v 0.1296589 -0.1877319 -0.1178111
v 0.09223825 -0.2302454 -0.1417027
v 0.07321385 -0.3260967 0.008523583
v 0.09488166 -0.3835069 0.01213962
v 0.1422802 -0.422279 0.01748759
v 0.202709 -0.4320241 0.02313453
v 1.161925 -0.3941583 0.005033672
v 1.200686 -0.3464932 0.007064641
v 1.210555 -0.285828 0.006149471
v 1.188887 -0.2284178 0.002533436
v 1.141489 -0.1896455 -0.002814591
v 0.179111 -0.1958733 0.01407212
v 0.1218437 -0.2177663 0.009639323
v 0.08308264 -0.2654314 0.007608414
v 0.0527425 -0.2734051 0.1840544
v 0.07099841 -0.3220334 0.2169256
v 0.1158993 -0.3543767 0.2436898
v 0.1754139 -0.3617687 0.2571756
v 1.135544 -0.326256 0.2312359
v 1.176803 -0.2850198 0.2118505
v 1.190084 -0.2331365 0.1816803
v 1.171828 -0.1845082 0.1488091
v 1.126927 -0.1521647 0.1220449
v 0.1654634 -0.1607455 0.1310927
v 0.1072819 -0.1802855 0.1344988
v 0.06602318 -0.2215217 0.1538841
v 0.02827185 -0.1399176 0.3089094
v 0.0424493 -0.1662979 0.3625898
v 0.08436454 -0.1823547 0.4045874
v 0.1427864 -0.1837854 0.423649
v 1.10401 -0.1542339 0.3921334
v 1.148254 -0.1292844 0.3575147
v 1.165613 -0.09964883 0.3065352
v 1.151435 -0.07326853 0.2528549
v 1.10952 -0.05721176 0.2108573
v 0.1491497 -0.07175386 0.2143294
v 0.08987535 -0.08533251 0.2233113
v 0.04563095 -0.1102822 0.25793
v 0.00635875 0.03859806 0.349634
v 0.01688404 0.04197037 0.4101018
v 0.05612568 0.04769397 0.4570681
v 0.1135689 0.05423546 0.4779484
v 1.075771 0.07581472 0.4446141
v 1.122689 0.0789839 0.4050267
v 1.1437 0.07886684 0.3472598
v 1.133175 0.07549453 0.286792
v 1.093933 0.06977093 0.2398257
v 1.03649 0.06322944 0.2189454
v 0.07428802 0.04165018 0.2522796
v 0.02737004 0.03848088 0.2918671
v -0.007125162 0.2143087 0.2953159
v 0.001152791 0.2469661 0.3467306
v 0.03874929 0.274128 0.3870697
v 0.09559035 0.2885164 0.4055243
v 1.058394 0.3022488 0.3746158
v 1.106957 0.2839798 0.3416556
v 1.130216 0.2545774 0.2929417
v 1.121938 0.2219201 0.241527
v 1.084342 0.1947583 0.201188
v 0.1255517 0.1643971 0.2052671
v 0.06469657 0.1666375 0.2136419
v 0.01613345 0.1849065 0.2466021
v -0.008566909 0.3401331 0.1605096
v -0.0005292371 0.3937612 0.1894566
v 0.03689134 0.4362746 0.2133482
v 0.09366802 0.4562821 0.2257825
v 1.056536 0.4643954 0.2008942
v 1.105275 0.4307748 0.1843815
v 1.128774 0.3804017 0.1581354
v 1.120737 0.3267736 0.1291884
v 1.083316 0.2842602 0.1052969
v 0.1245905 0.2482799 0.1153961
v 0.06367103 0.2561394 0.1177508
v 0.01493198 0.2897601 0.1342634
v -1.040721 -0.1485932 0.1249228
v -1.004922 -0.1769102 -0.2422512
v -1.005796 -0.1190559 -0.2521555
v 0.1594667 -0.0986551 0.2232354
v 0.1585922 -0.04080081 0.2133309
v 0.1943912 -0.06911778 -0.1538429
v 0.1952657 -0.1269721 -0.1439385
v -1.033075 -0.1080002 0.1212682
v -0.6533638 -0.3607597 0.1487904
v -0.6044163 -0.3951838 -0.09394228
v -0.62191 -0.1487819 -0.1324145
v -0.6708576 -0.1143579 0.1103182
v 0.01120639 -0.3131148 0.1964934
v -0.006287389 -0.06671298 0.1580212
v 0.04266009 -0.1011372 -0.08471143
v 0.06015388 -0.347539 -0.04623926
v 0.1022423 0.3927772 0.06566244
v 0.1073326 0.3894346 -0.06419492
v 0.1228205 0.2604203 -0.06026697
v 0.1177301 0.2637628 0.06959039
v -0.0267314 0.3771524 0.06100893
v -0.01124354 0.2481382 0.06493688
v -0.006153211 0.2447956 -0.06492049
v -0.02164107 0.3738099 -0.06884843
v 0.08079372 0.00745225 0.3866633
v 0.08584449 0.007092595 0.2867916
v 0.01802272 -0.06632531 0.2836261
v 0.01297195 -0.06596577 0.3834978
v 0.007481404 0.07534683 0.3827113
v -0.06034037 0.001928926 0.3795457
v -0.0552896 0.001569271 0.279674
v 0.01253217 0.07498729 0.2828395
v 0.1345643 -0.02925503 -0.309997
v 0.1281471 -0.0258261 -0.4097319
v 0.05677646 -0.09583652 -0.4075468
v 0.06319366 -0.09926546 -0.3078117
v 0.06481441 0.04206669 -0.303057
v -0.006556243 -0.02794373 -0.3008718
v -0.01297344 -0.02451479 -0.4006068
v 0.05839721 0.04549563 -0.402792
vn -0.9911258 -0.1022984 -0.08488215
vn -0.9080201 0.4085668 -0.09258873
vn -0.5816112 0.809957 -0.07548624
vn -0.01126064 0.9573548 -0.2886958
vn 0.6359904 0.7564008 -0.1528866
vn 0.9355152 0.3532737 0.003056832
vn 0.974606 -0.1561217 0.1605278
vn 0.7411733 -0.6142583 0.2708301
vn 0.0432259 -0.9554833 0.291862
vn 0.09936003 -0.9943197 0.03815727
vn -0.4095145 -0.9122554 -0.009395899
vn -0.8086603 -0.5857527 -0.05443149
vn -0.9911258 -0.1022984 -0.08488215
vn -0.8792884 0.3346139 -0.3389477
vn -0.5318463 0.6818666 -0.5021926
vn -0.01296767 0.6817715 -0.7314505
vn 0.6829575 0.5618278 -0.4668176
vn 0.9529704 0.2809623 -0.1136122
vn 0.9571496 -0.08381115 0.2772011
vn 0.6942039 -0.4196846 0.5847613
vn 0.1227601 0.1160839 0.9856241
vn 0.0418966 -0.8464139 0.5308754
vn -0.4592793 -0.7841651 0.4173105
vn -0.837392 -0.5117998 0.1919274
vn -0.9911258 -0.1022984 -0.08488215
vn -0.8449436 0.1472629 -0.514183
vn -0.4723594 0.3573653 -0.8057089
vn -0.006880752 0.2216064 -0.9751121
vn 0.7314319 0.2357556 -0.6398649
vn 0.9709856 0.15978 -0.1779258
vn 0.9391344 0.03737205 0.3415114
vn 0.6457274 -0.09361248 0.757808
vn 0.1906616 -0.196029 0.9618841
vn 0.006880861 -0.2216067 0.9751121
vn -0.5187662 -0.4596638 0.7208268
vn -0.8717367 -0.3244489 0.3671626
vn -0.9911258 -0.1022984 -0.08488215
vn -0.8141884 -0.1032854 -0.5713403
vn -0.4190898 -0.0765972 -0.9047082
vn 0.005275388 -0.2949699 -0.9554922
vn 0.7684268 -0.1344421 -0.6256563
vn 0.9847341 0.02219794 -0.1726448
vn 0.9253858 0.1749547 0.3362324
vn 0.6087349 0.2765858 0.743601
vn 0.02767674 0.2423302 0.9697992
vn -0.126153 0.5226078 0.8431885
vn -0.5720358 -0.02570123 0.8198261
vn -0.9024919 -0.07390068 0.4243198
vn -0.9911258 -0.1022984 -0.08488215
vn -0.7952635 -0.349897 -0.4951044
vn -0.3863111 -0.5037409 -0.7726637
vn 0.0202382 -0.7307841 -0.6823089
vn 0.7840251 -0.4495742 -0.4280044
vn 0.9905315 -0.09491795 -0.09918749
vn 0.9195886 0.2920714 0.2627764
vn 0.593139 0.591716 0.5459474
vn 0.01147426 0.7310552 0.6822221
vn -0.126153 0.5226078 0.8431885
vn -0.6048145 0.4014425 0.6877816
vn -0.9214167 0.1727107 0.3480839
vn -0.9911258 -0.1022984 -0.08488215
vn -0.7932401 -0.5264924 -0.3059026
vn -0.3828063 -0.809613 -0.4449567
vn 0.03413071 -0.9732369 -0.227256
vn 0.7740506 -0.6251977 -0.09986754
vn 0.986824 -0.1601885 0.02276186
vn 0.9232966 0.3573402 0.1408251
vn 0.603114 0.7673411 0.2178105
vn -0.002276207 0.9733673 0.22924
vn -0.1302 0.8757986 0.464785
vn -0.6083193 0.7073146 0.3600746
vn -0.9234402 0.349306 0.1588823
vn -0.9911258 -0.1022984 -0.08488215
vn -0.80866 -0.5857529 -0.05443142
vn -0.4095145 -0.9122554 -0.009395828
vn 0.0432259 -0.9554832 0.2918621
vn 0.7411724 -0.6142589 0.2708312
vn 0.9746053 -0.1561247 0.1605297
vn 0.9355145 0.3532757 0.003056834
vn 0.63599 0.7564012 -0.1528866
vn -0.01126068 0.9573547 -0.2886958
vn -0.09936004 0.9943197 -0.03815736
vn -0.5816111 0.809957 -0.07548631
vn -0.9080203 0.4085666 -0.09258878
vn -0.9911258 -0.1022984 -0.08488215
vn -0.8373917 -0.5118 0.1919277
vn -0.4592793 -0.7841651 0.4173106
vn 0.04489943 -0.6780063 0.7336836
vn 0.6942044 -0.4196846 0.5847608
vn 0.9571495 -0.08381154 0.2772013
vn 0.9529691 0.2809645 -0.1136177
vn 0.6829578 0.5618274 -0.4668179
vn -0.01296781 0.6817715 -0.7314506
vn -0.04189659 0.8464137 -0.5308756
vn -0.5318463 0.6818666 -0.5021927
vn -0.8792885 0.3346136 -0.3389478
vn -0.9911258 -0.1022984 -0.08488215
vn -0.8717365 -0.324449 0.3671628
vn -0.5187663 -0.4596637 0.7208268
vn 0.03866907 -0.2177338 0.9752421
vn 0.6457292 -0.09361285 0.7578065
vn 0.939135 0.03737209 0.34151
vn 0.9709859 0.1597805 -0.1779232
vn 0.7314334 0.2357555 -0.6398633
vn -0.004580494 0.06423695 -0.9979243
vn 0.02679299 0.4717118 -0.8813459
vn -0.4723594 0.3573653 -0.805709
vn -0.8449438 0.1472628 -0.5141827
vn -0.9911258 -0.1022984 -0.08488215
vn -0.9024917 -0.07390067 0.42432
vn -0.5720358 -0.02570127 0.8198261
vn 0.02640417 0.2970894 0.9544848
vn 0.6087365 0.2765863 0.7435996
vn 0.9253868 0.1749541 0.33623
vn 0.9847345 0.02219827 -0.1726426
vn 0.768426 -0.1344437 -0.6256569
vn 2.079952E-05 -0.1338016 -0.9910083
vn 0.126153 -0.5226077 -0.8431886
vn -0.4190898 -0.07659717 -0.9047082
vn -0.8141885 -0.1032854 -0.57134
vn -0.9911258 -0.1022984 -0.08488215
vn -0.9214166 0.1727109 0.3480842
vn -0.6048146 0.4014423 0.6877816
vn 0.01147426 0.7310548 0.6822225
vn 0.5931386 0.5917167 0.5459471
vn 0.9195889 0.2920708 0.262776
vn 0.9905313 -0.09491912 -0.0991882
vn 0.7840251 -0.4495736 -0.428005
vn 0.02023811 -0.7307845 -0.6823085
vn 0.126153 -0.5226077 -0.8431886
vn -0.3863111 -0.5037408 -0.7726638
vn -0.7952638 -0.3498968 -0.4951041
vn -0.9911258 -0.1022984 -0.08488215
vn -0.9234402 0.3493063 0.1588823
vn -0.6083194 0.7073148 0.3600743
vn -0.002276198 0.9733674 0.2292399
vn 0.6031127 0.7673422 0.2178104
vn 0.9232963 0.3573408 0.1408251
vn 0.9868239 -0.1601892 0.02276152
vn 0.7740495 -0.625199 -0.09986766
vn 0.03413073 -0.9732368 -0.2272563
vn 0.1302 -0.8757987 -0.4647847
vn -0.3828062 -0.8096132 -0.4449565
vn -0.7932402 -0.5264921 -0.3059024
vn 0.306017 0.2472935 -0.9193476
vn 0.3558089 -0.250985 -0.9002261
vn 0.0448994 -0.6780065 0.7336835
vn 0.1408697 0.3022501 0.9427625
vn -0.03967108 0.2934497 -0.9551512
vn -0.02464249 -0.348568 -0.9369597
vn 0.01388369 -0.7624519 0.646896
vn -0.00912711 0.4543469 0.8907783
vn -0.9950249 -0.03123472 -0.09460483
vn 0.9950248 0.03123637 0.09460475
vn 0.03487737 -0.9961663 0.08022626
vn -0.03487733 0.9961663 -0.08022635
vn -0.0873896 0.1668125 0.9821084
vn 0.08738966 -0.1668116 -0.9821085
vn -0.981046 0.1778494 -0.07693221
vn -0.05369234 0.9979965 -0.03346936
vn -0.08247316 0.1047597 0.9910721
vn -0.9781463 -0.09807082 -0.1833366
vn 0.9781463 0.09807082 0.1833366
vn 0.05982098 -0.986572 0.1519779
vn -0.05982089 0.9865721 -0.1519772
vn -0.08136654 0.1481134 0.9856177
vn 0.08136652 -0.1481135 -0.9856177
vn 0.9921054 0.1201897 0.03579629
vn -0.9921054 -0.1201897 -0.03579629
vn -0.1191374 0.9924182 -0.03021497
vn 0.1191374 -0.9924182 0.03021497
vn -0.03915641 0.02571176 0.9989025
vn 0.03915641 -0.02571176 -0.9989025
vn 0.7331232 -0.6789466 0.03952076
vn -0.7331232 0.6789466 -0.03952076
vn 0.6782178 0.7341791 0.03165552
vn -0.6782178 -0.7341791 -0.03165552
vn -0.05050772 0.003596285 0.9987174
vn 0.05050772 -0.003596285 -0.9987174
vn 0.6974991 -0.7132172 -0.06939964
vn -0.6974991 0.7132172 0.06939964
vn 0.7137066 0.7001042 -0.02185174
vn -0.7137066 -0.7001042 0.02185174
vn 0.064172 -0.03428939 0.9973499
vn -0.064172 0.03428939 -0.9973499
usemtl mat21
f 4//1 3//1 2//1 1//1
f 6//2 5//2 3//2 4//2
f 8//3 7//3 5//3 6//3
f 10//4 9//4 7//4 8//4
f 12//5 11//5 9//5 10//5
f 14//6 13//6 11//6 12//6
f 16//7 15//7 13//7 14//7
f 18//8 17//8 15//8 16//8
f 20//9 19//9 17//9 18//9
f 22//10 21//10 19//10 20//10
f 24//11 23//11 21//11 22//11
f 1//12 2//12 23//12 24//12
f 3//13 26//13 25//13 2//13
f 5//14 27//14 26//14 3//14
f 7//15 28//15 27//15 5//15
f 11//17 30//17 29//17 9//17
f 13//18 31//18 30//18 11//18
f 15//19 32//19 31//19 13//19
f 17//20 33//20 32//20 15//20
f 19//21 34//21 33//21
f 21//22 35//22 19//22
f 23//23 36//23 35//23 21//23
f 2//24 25//24 36//24 23//24
f 26//25 38//25 37//25 25//25
f 27//26 39//26 38//26 26//26
f 28//27 40//27 39//27 27//27
f 30//29 42//29 41//29 29//29
f 31//30 43//30 42//30 30//30
f 32//31 44//31 43//31 31//31
f 33//32 45//32 44//32 32//32
f 34//33 46//33 45//33 33//33
f 35//34 47//34 46//34 34//34
f 36//35 48//35 47//35 35//35
f 25//36 37//36 48//36 36//36
f 38//37 50//37 49//37 37//37
f 39//38 51//38 50//38 38//38
f 40//39 52//39 51//39 39//39
f 42//41 54//41 53//41 41//41
f 43//42 55//42 54//42 42//42
f 44//43 56//43 55//43 43//43
f 45//44 57//44 56//44 44//44
f 46//45 58//45 57//45
f 47//46 59//46 58//46
f 48//47 60//47 59//47 47//47
f 37//48 49//48 60//48 48//48
f 50//49 62//49 61//49 49//49
f 51//50 63//50 62//50 50//50
f 52//51 64//51 63//51 51//51
f 53//52 65//52 64//52 52//52
f 54//53 66//53 65//53 53//53
f 55//54 67//54 66//54 54//54
f 56//55 68//55 67//55 55//55
f 57//56 69//56 68//56 56//56
f 58//57 70//57 69//57 57//57
f 59//58 71//58 70//58 58//58
f 60//59 72//59 71//59 59//59
f 49//60 61//60 72//60 60//60
f 62//61 74//61 73//61 61//61
f 63//62 75//62 74//62 62//62
f 64//63 76//63 75//63 63//63
f 65//64 77//64 76//64 64//64
f 66//65 78//65 77//65 65//65
f 67//66 79//66 78//66 66//66
f 68//67 80//67 79//67 67//67
f 69//68 81//68 80//68 68//68
f 70//69 82//69 81//69 69//69
f 71//70 83//70 82//70 70//70
f 72//71 84//71 83//71 71//71
f 61//72 73//72 84//72 72//72
f 74//73 86//73 85//73 73//73
f 75//74 87//74 86//74 74//74
f 76//75 88//75 87//75 75//75
f 77//76 89//76 88//76 76//76
f 78//77 90//77 89//77 77//77
f 79//78 91//78 90//78 78//78
f 80//79 92//79 91//79 79//79
f 81//80 93//80 92//80 80//80
f 82//81 94//81 93//81 81//81
f 83//82 95//82 94//82 82//82
f 84//83 96//83 95//83 83//83
f 73//84 85//84 96//84 84//84
f 86//85 98//85 97//85 85//85
f 87//86 99//86 98//86 86//86
f 88//87 100//87 99//87 87//87
f 89//88 101//88 100//88 88//88
f 90//89 102//89 101//89 89//89
f 91//90 103//90 102//90 90//90
f 92//91 104//91 103//91 91//91
f 93//92 105//92 104//92 92//92
f 94//93 106//93 105//93 93//93
f 95//94 107//94 106//94 94//94
f 96//95 108//95 107//95 95//95
f 85//96 97//96 108//96 96//96
f 98//97 110//97 109//97 97//97
f 99//98 111//98 110//98 98//98
f 100//99 112//99 111//99 99//99
f 102//101 114//101 113//101 101//101
f 103//102 115//102 114//102 102//102
f 104//103 116//103 115//103 103//103
f 105//104 117//104 116//104 104//104
f 106//105 118//105 105//105
f 107//106 119//106 106//106
f 108//107 120//107 119//107 107//107
f 97//108 109//108 120//108 108//108
f 110//109 122//109 121//109 109//109
f 111//110 123//110 122//110 110//110
f 112//111 124//111 123//111 111//111
f 114//113 126//113 125//113 113//113
f 115//114 127//114 126//114 114//114
f 116//115 128//115 127//115 115//115
f 117//116 129//116 128//116 116//116
f 118//117 130//117 129//117
f 119//118 131//118 130//118
f 120//119 132//119 131//119 119//119
f 109//120 121//120 132//120 120//120
f 122//121 134//121 133//121 121//121
f 123//122 135//122 134//122 122//122
f 124//123 136//123 135//123 123//123
f 126//125 138//125 137//125 125//125
f 127//126 139//126 138//126 126//126
f 128//127 140//127 139//127 127//127
f 129//128 141//128 140//128 128//128
f 130//129 142//129 141//129 129//129
f 131//130 143//130 142//130 130//130
f 132//131 144//131 143//131 131//131
f 121//132 133//132 144//132 132//132
f 134//133 4//133 1//133 133//133
f 135//134 6//134 4//134 134//134
f 136//135 8//135 6//135 135//135
f 137//136 10//136 8//136 136//136
f 138//137 12//137 10//137 137//137
f 139//138 14//138 12//138 138//138
f 140//139 16//139 14//139 139//139
f 141//140 18//140 16//140 140//140
f 142//141 20//141 18//141 141//141
f 143//142 22//142 20//142 142//142
f 144//143 24//143 22//143 143//143
f 133//144 1//144 24//144 144//144
f 118//145 117//145 105//145
f 129//146 117//146 118//146
f 33//147 17//147 19//147
f 57//148 45//148 46//148
f 119//149 118//149 106//149
f 130//150 118//150 119//150
f 35//151 34//151 19//151
f 58//152 46//152 47//152
f 147//153 146//153 145//153
f 151//154 150//154 149//154 148//154
f 146//155 151//155 148//155 145//155
f 149//156 150//156 147//156
f 148//157 149//157 145//157
f 147//158 150//158 151//158 146//158
f 145//159 152//159 147//159
f 147//160 152//160 149//160
f 149//161 152//161 145//161
f 156//162 155//162 154//162 153//162
f 160//163 159//163 158//163 157//163
f 154//164 160//164 157//164 153//164
f 158//165 159//165 155//165 156//165
f 157//166 158//166 156//166 153//166
f 155//167 159//167 160//167 154//167
f 172//174 171//174 170//174 169//174
f 176//175 175//175 174//175 173//175
f 170//176 176//176 173//176 169//176
f 174//177 175//177 171//177 172//177
f 173//178 174//178 172//178 169//178
f 171//179 175//179 176//179 170//179
f 180//180 179//180 178//180 177//180
f 184//181 183//181 182//181 181//181
f 178//182 184//182 181//182 177//182
f 182//183 183//183 179//183 180//183
f 181//184 182//184 180//184 177//184
f 179//185 183//185 184//185 178//185
usemtl mat5
f 9//16 29//16 28//16 7//16
f 29//28 41//28 40//28 28//28
f 41//40 53//40 52//40 40//40
f 101//100 113//100 112//100 100//100
f 113//112 125//112 124//112 112//112
f 125//124 137//124 136//124 124//124
usemtl mat25
f 164//168 163//168 162//168 161//168
f 168//169 167//169 166//169 165//169
f 162//170 168//170 165//170 161//170
f 166//171 167//171 163//171 164//171
f 165//172 166//172 164//172 161//172
f 163//173 167//173 168//173 162//173
